<svg width="9" height="13" viewBox="0 0 9 13" fill="none" xmlns="http://www.w3.org/2000/svg">
<path d="M8.65815 6.67407C8.65559 5.94866 8.37191 5.26706 7.85868 4.75385C7.40374 4.29891 6.81645 4.02449 6.18366 3.96622V3.00058C6.18366 2.38391 5.94199 1.80263 5.50319 1.36382C5.06438 0.925009 4.48309 0.68335 3.86641 0.68335H2.63655C2.01988 0.68335 1.4386 0.925013 0.999801 1.36382C0.561 1.80263 0.319336 2.38391 0.319336 3.00058V12.4414C0.319336 12.5822 0.433526 12.6964 0.574383 12.6964C0.71524 12.6964 0.82943 12.5822 0.82943 12.4414V3.00058C0.82943 2.00412 1.6401 1.19344 2.63655 1.19344H3.86641C4.86288 1.19344 5.67356 2.00412 5.67356 3.00058V3.96622C5.04078 4.02449 4.4535 4.29891 3.99856 4.75385C3.48301 5.26939 3.19908 5.95484 3.19908 6.68394C3.19908 6.82479 3.31327 6.93898 3.45413 6.93898H8.40312C8.40317 6.93898 8.40324 6.93898 8.40329 6.93898C8.54415 6.93898 8.65834 6.82479 8.65834 6.68394C8.65833 6.68064 8.65828 6.67734 8.65815 6.67407ZM3.72374 6.42889C3.85067 5.3248 4.79109 4.46449 5.92861 4.46449C7.06615 4.46449 8.00658 5.3248 8.13351 6.42889H3.72374Z" fill="#365196"/>
</svg>
